Coordinates
version=1
nRows=15
nColumns=34
inDegrees=yes

Units are S.I. units (second, meters, Newtons, ...)
If the header above contains a line with 'inDegrees', this indicates whether rotational values are in degrees (yes) or radians (no).

endheader
time	pelvis_tilt	pelvis_list	pelvis_rotation	pelvis_tx	pelvis_ty	pelvis_tz	hip_flexion_r	hip_adduction_r	hip_rotation_r	knee_angle_r	ankle_angle_r	subtalar_angle_r	mtp_angle_r	hip_flexion_l	hip_adduction_l	hip_rotation_l	knee_angle_l	ankle_angle_l	subtalar_angle_l	mtp_angle_l	lumbar_extension	lumbar_bending	lumbar_rotation	arm_flex_r	arm_add_r	arm_rot_r	elbow_flex_r	pro_sup_r	arm_flex_l	arm_add_l	arm_rot_l	elbow_flex_l	pro_sup_l
      0.00000000	      7.64640062	      1.35443263	   -176.12280229	      0.10761377	      1.06833719	      0.11438626	     15.37973251	      2.63072815	      0.79002314	     25.56263655	      0.95623146	    -17.10025699	      0.00000000	     32.94441820	     -1.39055655	      3.13352926	     51.45755840	     -6.82423122	    -25.77835358	      0.00000000	    -20.09745106	      4.04658898	      2.50668344	      4.43035351	    -14.78575905	     -0.00921361	     77.46805279	     93.08863404	     -9.44085848	    -15.18107641	      9.36434983	     57.95860845	     81.55548948
      0.00833330	      9.71641113	      1.09536456	   -176.33152910	      0.10649244	      1.06728471	      0.11395946	     16.51084628	      2.57483283	      2.25186352	     24.90940249	      0.48787132	    -15.72382858	      0.00000000	     36.03889689	     -2.22401996	     -0.52710198	     50.53969088	     -8.97370881	    -23.50119800	      0.00000000	    -17.29630548	      2.75550259	      3.38755350	      3.69013113	    -13.62587075	     -0.81869350	     80.13152507	     93.02825590	    -11.55129182	    -15.92569224	      7.78779141	     59.72223505	     81.84490103
      0.01666670	     10.94593876	      0.77867397	   -176.85610197	      0.10450434	      1.06731207	      0.11453620	     16.40012228	      1.90273846	      1.78383467	     23.13082399	     -0.03326870	    -11.83755628	      0.00000000	     36.34772506	     -1.96228384	     -1.66504935	     45.67438946	    -11.66768097	    -22.55291204	      0.00000000	    -14.63750680	      2.31924231	      4.43041637	      3.07930102	    -13.21552470	     -1.15450074	     81.44547536	     93.16290040	    -13.80310464	    -16.56416644	      7.63568869	     61.94950427	     82.24790387
      0.02500000	     12.30573164	      1.16923956	   -177.07336759	      0.10251626	      1.06860193	      0.11576657	     16.73028329	      2.01050013	      1.23205772	     21.68368446	     -0.36897541	     -9.45262753	      0.00000000	     37.43057945	     -2.01477934	     -1.93322802	     41.81200360	    -12.37569999	    -21.22905312	      0.00000000	    -12.45044174	      2.72119163	      5.32957382	      2.65221677	    -13.02523914	     -1.51418945	     81.89314149	     93.54918574	    -15.77374717	    -16.80177720	      7.25460684	     64.24658651	     82.85133709
      0.03333330	     13.33279816	      1.18995354	   -177.35215770	      0.10056681	      1.07009468	      0.11679103	     16.80801275	      1.97720508	      1.31558773	     20.67977028	     -0.34117892	     -7.72754242	      0.00000000	     38.33185149	     -1.82210104	     -2.01642932	     38.12230476	    -12.23264478	    -18.83172650	      0.00000000	    -11.03292475	      2.79283302	      5.99896363	      2.41746656	    -12.91536847	     -1.40034301	     82.65885155	     94.02227300	    -17.35441203	    -16.89176902	      6.74070778	     65.80255383	     83.42851497
      0.04166670	     14.06605413	      1.27326745	   -177.53736200	      0.09867492	      1.07145740	      0.11799125	     16.51991463	      2.01102410	      1.27652498	     19.69069369	     -0.28223243	     -6.27404912	      0.00000000	     38.80954177	     -1.65220490	     -2.35830248	     34.29348512	    -11.86968869	    -15.30474848	      0.00000000	    -10.01424226	      2.88847376	      6.46487847	      2.31160642	    -12.94325218	     -1.28859895	     83.64180366	     94.66279663	    -18.86218248	    -16.82384479	      5.83425170	     67.19237075	     84.20291886
      0.05000000	     14.54455135	      1.28575601	   -177.77054719	      0.09683014	      1.07289800	      0.11921461	     15.94564173	      1.94568124	      1.22478705	     18.81627954	     -0.53958463	     -5.16106163	      0.00000000	     38.93603418	     -1.50836117	     -3.02519555	     30.51372081	    -11.50662173	    -11.26342931	      0.00000000	     -9.49794019	      2.88723366	      7.00557668	      2.39288107	    -13.12970067	     -1.00156780	     84.83579489	     95.24517302	    -20.09820205	    -16.73866515	      4.92171023	     68.42914927	     84.93788242
      0.05833330	     14.86112358	      1.42220572	   -178.06138425	      0.09509166	      1.07420829	      0.12059266	     15.25710338	      2.01500835	      1.16991378	     17.97724524	     -0.57090409	     -4.09727615	      0.00000000	     38.79915260	     -1.53370044	     -3.86204420	     26.98477482	    -11.17936310	     -7.34651461	      0.00000000	     -9.14504975	      2.98935479	      7.59043335	      2.54812726	    -13.39502996	     -0.66722515	     86.12587131	     95.79660642	    -21.26969757	    -16.59029959	      3.90096550	     69.82421665	     85.70174950
      0.06666670	     14.88547181	      1.72111871	   -178.30504865	      0.09350911	      1.07522617	      0.12205129	     14.30349343	      2.23568578	      1.08911484	     17.16162827	     -0.61874189	     -3.10119519	      0.00000000	     38.43040487	     -1.76041106	     -4.84640025	     23.96944388	    -11.13230015	     -3.89304736	      0.00000000	     -9.27565519	      3.21944930	      7.77809369	      3.16544023	    -13.53078456	     -0.33391663	     87.37000872	     96.96983034	    -22.81868643	    -16.06911145	      1.69807707	     72.06547667	     87.69667554
      0.07500000	     15.22020463	      1.79226081	   -178.64408765	      0.09148880	      1.07529796	      0.12340956	     13.83318229	      2.19514711	      1.08875807	     16.68221316	     -0.28164906	     -2.13055922	      0.00000000	     38.29018936	     -1.83135207	     -5.86175700	     21.39426542	    -11.12112039	     -1.02862408	      0.00000000	     -8.73470573	      3.18777645	      8.30064268	      3.14993827	    -13.94257893	      0.33695294	     88.56180159	     97.30836885	    -23.85923829	    -16.01597021	      1.10828229	     73.26076989	     88.32287722
      0.08333330	     15.32150133	      2.02561294	   -178.94404462	      0.08956978	      1.07502146	      0.12498575	     13.13209805	      2.30714063	      1.07116024	     16.20323819	      0.01254156	     -1.24948796	      0.00000000	     38.05757470	     -2.08906359	     -6.82759963	     19.47887938	    -11.06989625	      1.55693466	      0.00000000	     -8.53764228	      3.38547288	      8.77597577	      3.22737486	    -14.23751480	      0.72200765	     89.82029467	     97.59491261	    -25.00580275	    -15.80269558	      0.16547621	     75.09320365	     88.94416689
      0.09166670	     15.14966283	      2.29115967	   -179.21777958	      0.08752446	      1.07446218	      0.12649462	     12.16242990	      2.48040620	      1.25880354	     15.81322481	      0.39446862	     -0.77186723	      0.00000000	     37.60293043	     -2.35646071	     -7.38338669	     18.04991669	    -11.13680378	      3.43937736	      0.00000000	     -8.70696406	      3.45668794	      8.44962394	      3.92710425	    -14.13688964	      1.35547303	     90.53900036	     98.36721537	    -26.95524266	    -14.77048213	     -2.54562407	     77.66522232	     91.16790168
      0.10000000	     15.39267938	      2.49483172	   -179.60644137	      0.08528264	      1.07257767	      0.12798182	     11.82181692	      2.57423247	      1.47107513	     15.83693760	      0.81391826	     -0.20963138	      0.00000000	     37.60129871	     -2.64091822	     -8.14041734	     16.92823689	    -11.32801459	      5.04144507	      0.00000000	     -7.97035230	      3.67328711	      8.90540445	      3.64026116	    -14.61405919	      2.17220669	     91.51537337	     98.53514762	    -27.83871407	    -14.63631398	     -2.83703466	     79.04912614	     91.62802268
      0.10833330	     15.43542057	      2.82280044	   -179.93450196	      0.08325524	      1.07026109	      0.12937331	     11.38371096	      2.83840706	      1.87372369	     16.09285108	      1.43016071	      0.05232297	      0.00000000	     37.48523486	     -3.01910157	     -8.70660019	     16.14333243	    -11.28796472	      6.53398693	      0.00000000	     -7.68664517	      3.91252063	      9.06377352	      3.41397128	    -14.85010200	      2.62291651	     92.68904168	     98.67522727	    -28.86974558	    -14.26841311	     -3.53699816	     80.95434305	     92.12190790
      0.11666670	     15.39389911	      3.07920776	   -180.23627773	      0.08124617	      1.06745836	      0.13075619	     11.06334235	      3.04505031	      2.42242868	     16.79967701	      2.01024506	     -0.01136370	      0.00000000	     37.31953295	     -3.31192716	     -9.10393567	     15.73339027	    -11.30739730	      7.53233061	      0.00000000	     -7.37362338	      4.06445822	      9.10497522	      3.17034690	    -15.00841673	      3.11251315	     93.75351069	     98.82109334	    -29.85051018	    -13.78409035	     -4.46476382	     82.89844516	     92.69446999
